<svg width="700" height="700" viewBox="0 0 700 700" xmlns="http://www.w3.org/2000/svg" xmlns:xlink="http://www.w3.org/1999/xlink" xmlns:sketch="http://www.bohemiancoding.com/sketch/ns"><title>logo-extra-whitespace</title><desc>Created with Sketch.</desc><defs/><g id="Page-1" stroke="none" stroke-width="1" fill="none" fill-rule="evenodd" sketch:type="MSPage"><g id="logo-extra-whitespace" sketch:type="MSArtboardGroup"><g id="logo-no-bg" sketch:type="MSLayerGroup" transform="translate(98.000000, 118.000000)"><g id="Page-1" sketch:type="MSShapeGroup"><g id="gitlab_logo"><g id="g10" transform="translate(248.000000, 228.833300) scale(1, -1) translate(-248.000000, -228.833300) translate(0.000000, 0.333300)"><g id="g16"><g id="g18-Clipped"><g id="g18"><g><g id="Group" transform="translate(0.666658, 0.666658)"><g id="g44" transform="translate(0.532000, 0.774933)" fill="#fc6d26"><path d="M491.999988 194.666662 464.441322 279.481326 409.82399 447.578655C407.014656 456.226655 394.778657 456.226655 391.96799 447.578655L337.349325 279.481326H155.982663L101.362664 447.578655C98.5533309 456.226655 86.3173312 456.226655 83.5066646 447.578655L28.8893326 279.481326 1.33199997 194.666662C-1.18266664 186.930662 1.57199996 178.455996 8.1519998 173.674662L246.665327.385333324 485.179988 173.674662C491.759988 178.455996 494.513321 186.930662 491.999988 194.666662" id="path46"/></g><g id="g48" transform="translate(156.197863, 1.160267)" fill="#e24329"><path d="M90.9999977.0V0L181.683995 279.095993H.31599997L90.9999977.0V0z" id="path50"/></g><g id="g56" transform="translate(28.531199, 1.160800)" fill="#fc6d26"><path d="M218.666661.0 127.982663 279.09466H.890666644L218.666661.0V0z" id="path58"/></g><g id="g64" transform="translate(0.088533, 0.255867)" fill="#fca326"><path d="M29.3333326 279.999993v0L1.77466662 195.185328C-.738666648 187.449329 2.01466662 178.974662 8.59599979 174.194662L247.109327.905333311 29.3333326 279.999993v0z" id="path66"/></g><g id="g72" transform="translate(29.421866, 280.255593)" fill="#e24329"><path d="M0 0H127.091997L72.4733315 168.097329C69.6626649 176.746662 57.4266652 176.746662 54.617332 168.097329L0 0V0z" id="path74"/></g><g id="g76" transform="translate(247.197860, 1.160800)" fill="#fc6d26"><path d="M0 0 90.6839977 279.09466H217.775995L0 0V0z" id="path78"/></g><g id="g80" transform="translate(246.307061, 0.255867)" fill="#fca326"><path d="M218.666661 279.999993v0L246.225327 195.185328C248.73866 187.449329 245.985327 178.974662 239.403994 174.194662L.890666644.905333311 218.666661 279.999993v0z" id="path82"/></g><g id="g84" transform="translate(336.973725, 280.255593)" fill="#e24329"><path d="M127.999997.0H.907999977L55.5266653 168.097329C58.3373319 176.746662 70.5733316 176.746662 73.3826648 168.097329L127.999997.0V0z" id="path86"/></g></g></g></g></g></g></g></g></g></g></g></g></svg>